<?xml version="1.0" encoding="UTF-8"?>
<svg id="uuid-320f4a1a-0469-4445-a548-fda1d86838f1" data-name="Layer 1" xmlns="http://www.w3.org/2000/svg" xmlns:xlink="http://www.w3.org/1999/xlink" viewBox="0 0 1080 1920">
  <defs>
    <style>
      .uuid-01c081a2-8e2f-4b57-852a-1bdc8d71fd4d {
        fill: #00bbd6;
      }

      .uuid-e630c652-cec6-47be-ae29-dcc619a17871 {
        fill: #6ac9cd;
      }

      .uuid-31faa4d1-eec1-4d84-a89c-bccaca48bc4d {
        fill: #92d7e7;
      }

      .uuid-6ad24eac-b9b6-4eae-9f26-931b8cd53dee {
        fill: #81d0d3;
      }

      .uuid-cdcc12c6-b35d-4a4b-b547-32d074b1000d {
        fill: #5bc9e1;
      }

      .uuid-aaa8de5c-4dbd-46e0-ab84-a15e8b8c82b2 {
        fill: url(#uuid-fc5bad10-ef26-4a34-8baa-e8ff8669cc28);
      }
    </style>
    <linearGradient id="uuid-fc5bad10-ef26-4a34-8baa-e8ff8669cc28" data-name="White, Black" x1="364.4" y1="893.37" x2="715.6" y2="893.37" gradientUnits="userSpaceOnUse">
      <stop offset="0" stop-color="#fff"/>
      <stop offset="1" stop-color="#000"/>
    </linearGradient>
  </defs>
  <path class="uuid-aaa8de5c-4dbd-46e0-ab84-a15e8b8c82b2" d="M706.38,1188.45h-67.05l-31.01-409.87,10.06-10.9h7.54l-2.51-14.25h-7.54l-.07-16.54h-8.14v18.32l-9.3-.58v-38.09h6.69v-16.7h-17.43l-1.45-37.76h15.97l.55-12.03c-.6,.05-1.2,.08-1.8,.06-.02,0-.03,0-.05,0-1.27,.17-2.57,.07-3.85,.15-1.66,.11-3.32,.19-4.98,.2-.45,0-.92,.02-1.37,0-.05,0-.08,0-.09,0h-.02s-.26-.44-.26-.44c-.06-.05-.09-.11-.1-.18l-9.07-15.35-13.8-9.44-9.44-5.99-7.75,1.72,1.72-7.75,4.31-3.45v-12.06l-10.34-6.46-.43-12.06h-5.94v15.07l-9.13,2.58-3.01,7.75,2.58,6.03,4.31,5.17v5.17l-12.06,.43-9.04,5.6-7.32,6.89-3.45,6.89-3.45,6.46-15.93,.86-.43,13.78,17.66,.43v35.31l-19.81,1.29,.86,20.67,6.03-.86,1.29,34.45-11.63,.43v-18.52l-11.2,.43,.86,16.36-4.74,1.29,1.29,16.36,14.46,9.21-30.17,412.39h-77.11l-5.87,8.38,7.54,8.38h343.66v-9.22l-9.22-10.06Z"/>
  <polygon class="uuid-01c081a2-8e2f-4b57-852a-1bdc8d71fd4d" points="349.75 626.4 349.75 642.77 465.04 664.83 465.04 657 349.75 626.4"/>
  <polygon class="uuid-cdcc12c6-b35d-4a4b-b547-32d074b1000d" points="305.63 659.85 305.63 679.77 465.04 679.77 465.04 672.66 305.63 659.85"/>
  <polygon class="uuid-31faa4d1-eec1-4d84-a89c-bccaca48bc4d" points="305.63 694.72 305.63 711.8 465.04 698.28 465.04 688.31 305.63 694.72"/>
  <polyline class="uuid-6ad24eac-b9b6-4eae-9f26-931b8cd53dee" points="465.04 704.68 349.75 728.17 349.75 743.11 465.04 711.8"/>
  <polygon class="uuid-e630c652-cec6-47be-ae29-dcc619a17871" points="620.9 659.85 620.9 666.26 737.64 642.3 735.99 626.4 620.9 659.85"/>
  <polygon class="uuid-e630c652-cec6-47be-ae29-dcc619a17871" points="620.9 673.77 620.9 681.52 779.41 679.77 779.41 659.85 620.9 673.77"/>
  <polygon class="uuid-01c081a2-8e2f-4b57-852a-1bdc8d71fd4d" points="620.9 688.31 620.9 696.1 779.41 711.8 779.41 691.41 620.9 688.31"/>
  <polygon class="uuid-cdcc12c6-b35d-4a4b-b547-32d074b1000d" points="625.32 704.68 625.32 711.8 737.64 743.11 737.64 728.37 625.32 704.68"/>
</svg>